<svg width="578" height="125" viewBox="0 0 578 125" fill="none" xmlns="http://www.w3.org/2000/svg">
<path d="M136.395 82.492L121.952 63.9717C119.444 60.7586 116.589 57.8008 113.347 55.2558C109.908 52.5608 105.617 50.0834 97.9661 49.1375C89.3923 48.0789 77.979 53.0412 72.9072 60.6235L99.8513 99.1055L100.088 99.3307C104.292 103.107 109.806 105.284 115.579 105.442C121.834 105.494 127.876 103.204 132.348 99.0454C132.356 99.0379 132.372 99.0229 132.404 99.0079C133.752 97.6941 135.117 96.3878 136.466 95.0966C140.094 91.5907 139.826 86.7861 136.395 82.492Z" fill="#5BBEAC"/>
<path d="M112.929 52.4032L110.981 49.8508C110.981 49.8508 108.125 46.2173 104.821 41.9832C104.071 41.0073 103.275 40.0088 102.494 39.0103C101.106 37.2236 99.741 35.482 98.5421 33.958C98.5105 33.928 98.5026 33.9054 98.471 33.8754C93.9277 28.0874 87.6808 23.6581 80.5661 21.3984C80.1008 21.2483 79.6117 21.1132 79.1305 20.978C78.7756 20.8805 78.405 20.7904 78.0342 20.7078C77.6478 20.6102 77.2849 20.5351 76.8984 20.4525C76.4015 20.3474 75.9045 20.2649 75.4076 20.1823C75.1946 20.1523 74.9817 20.1147 74.753 20.0847C74.4532 20.0472 74.1535 20.0021 73.8459 19.9796C73.5619 19.942 73.278 19.912 72.9782 19.882C72.6785 19.852 72.3709 19.8294 72.0554 19.8144C71.6294 19.7769 71.2035 19.7619 70.7618 19.7469C70.0361 19.7168 69.2868 19.7093 68.5296 19.7318C67.307 19.7619 66.0845 19.852 64.8776 20.0021C64.6331 20.0321 64.3965 20.0547 64.152 20.0997C63.8128 20.1522 63.4737 20.2048 63.1266 20.2724C63.0872 20.2724 63.0556 20.2874 63.0162 20.2874C62.7007 20.3399 62.4088 20.3925 62.1091 20.46C61.7147 20.5426 61.2966 20.6327 60.9023 20.7303C60.7445 20.7678 60.5868 20.8129 60.4369 20.8504C59.8532 21.0006 59.2854 21.1582 58.7175 21.3384C52.2969 23.3353 46.6493 27.0964 42.2717 32.0061C41.617 32.7118 41.0097 33.44 40.426 34.1982L3.02288 82.7323C0.822231 84.8418 -0.210997 87.9648 0.609315 91.1779C1.05102 92.867 2.06852 94.3685 3.36209 95.5847C4.60833 96.7708 5.87827 97.9644 7.14029 99.1431C7.17184 99.1806 7.21128 99.2106 7.24283 99.2482C11.7703 103.347 17.8359 105.584 24.0829 105.464C29.8487 105.246 35.3306 103.002 39.4952 99.1956C39.4952 99.1956 39.4953 99.1956 39.511 99.1806C42.9737 95.8174 66.1397 59.7528 69.6181 56.4046C69.6733 56.337 69.7285 56.2844 69.7916 56.2169C75.8257 50.2937 83.8238 46.51 92.4292 45.4816C103.937 44.2429 107.684 48.9574 112.929 52.4032Z" fill="#5BBEAC"/>
<path d="M174.559 92.5938H187.568L192.251 79.0645H217.228L221.911 92.5938H234.92L210.463 27.0289H199.015L174.559 92.5938ZM196.414 67.6167L204.739 43.6803L213.065 67.6167H196.414ZM271.898 74.9016C271.377 76.2546 270.545 77.3994 269.608 78.336C267.943 80.0011 265.341 81.6663 261.491 81.6663C254.726 81.6663 249.523 76.5668 249.523 68.6574C249.523 60.748 254.726 55.6485 261.491 55.6485C265.341 55.6485 267.943 57.4177 269.608 59.0828C270.545 60.0195 271.377 61.1642 271.898 62.4131H283.866C281.681 52.9426 272.939 44.2006 261.491 44.2006C248.586 44.2006 237.554 55.1281 237.554 68.6574C237.554 82.1866 248.586 93.1141 261.491 93.1141C272.939 93.1141 281.681 84.3721 283.866 74.9016H271.898ZM313.526 55.6485C320.291 55.6485 325.495 60.748 325.495 68.6574C325.495 76.5668 320.291 81.6663 313.526 81.6663C306.762 81.6663 301.558 76.5668 301.558 68.6574C301.558 60.748 306.762 55.6485 313.526 55.6485ZM313.526 44.2006C300.621 44.2006 289.59 55.1281 289.59 68.6574C289.59 82.1866 300.621 93.1141 313.526 93.1141C326.431 93.1141 337.463 82.1866 337.463 68.6574C337.463 55.1281 326.431 44.2006 313.526 44.2006ZM346.26 92.5938H358.228V66.0556C358.228 59.8113 362.287 55.6485 368.115 55.6485C373.943 55.6485 378.002 59.8113 378.002 66.0556V92.5938H389.97V64.4945C389.97 52.006 382.06 44.2006 370.717 44.2006C366.658 44.2006 363.432 45.5536 361.038 46.8024C359.685 47.5309 358.332 48.4676 357.187 49.4042L355.106 44.721H346.26V92.5938ZM422.273 55.6485C429.037 55.6485 434.241 60.748 434.241 68.6574C434.241 76.5668 429.037 81.6663 422.273 81.6663C415.508 81.6663 410.304 76.5668 410.304 68.6574C410.304 60.748 415.508 55.6485 422.273 55.6485ZM422.273 44.2006C409.368 44.2006 398.336 55.1281 398.336 68.6574C398.336 82.1866 409.368 93.1141 422.273 93.1141C435.177 93.1141 446.209 82.1866 446.209 68.6574C446.209 55.1281 435.177 44.2006 422.273 44.2006ZM455.006 92.5938H466.974V65.0149C466.974 59.1869 470.617 55.6485 474.78 55.6485C478.943 55.6485 482.585 59.1869 482.585 65.0149V92.5938H494.553V65.0149C494.553 59.1869 498.196 55.6485 502.359 55.6485C506.521 55.6485 510.164 59.1869 510.164 65.0149V92.5938H522.132V63.9742C522.132 50.9653 515.368 44.2006 504.96 44.2006C500.798 44.2006 497.259 45.7617 494.761 47.3228C493.304 48.2594 492.056 49.3001 490.911 50.4449C490.182 49.3001 489.142 48.2594 487.893 47.3228C485.707 45.7617 482.273 44.2006 477.382 44.2006C473.947 44.2006 471.137 45.5536 469.16 46.8024C468.015 47.5309 466.87 48.4676 465.934 49.4042L463.852 44.721H455.006V92.5938ZM535.661 109.245L536.91 109.557C537.639 109.661 538.679 109.765 539.824 109.765C547.63 109.765 551.792 105.499 556.476 94.1548C557.1 93.01 561.783 80.5215 566.466 68.4492L575.729 44.721H563.24L552.313 75.9424L540.345 44.721H527.856L546.069 90.5123L545.028 93.1141C543.467 96.7566 540.969 99.3584 535.661 99.3584V109.245Z" fill="#1C2B4B"/>
</svg>
