<svg width="421" height="169" viewBox="0 0 421 169" fill="none" xmlns="http://www.w3.org/2000/svg">
<path d="M79.5304 57.2425C85.3081 61.566 89.7364 67.5009 91.9898 74.2613C92.134 74.7067 92.2781 75.1653 92.4091 75.6238C92.5008 75.9645 92.5926 76.3182 92.6843 76.6589C92.776 77.0257 92.8545 77.3794 92.9462 77.7332C93.051 78.2048 93.1297 78.6765 93.2214 79.1481C93.2476 79.3447 93.2869 79.5543 93.3131 79.7639C93.3524 80.0521 93.3917 80.3273 93.4179 80.6286C93.4572 80.9037 93.4834 81.1658 93.5096 81.454C93.5358 81.7422 93.5621 82.0304 93.5752 82.3318C93.6145 82.7379 93.6275 83.1441 93.6406 83.5633C93.6537 83.786 93.6538 84.0219 93.6538 84.2577L100.742 79.266V79.3971C112.31 71.7065 133.875 58.3037 136.443 55.7882C136.456 55.7751 136.456 55.7752 136.456 55.7752C140.269 51.8185 142.509 46.6041 142.719 41.1277C142.837 35.1928 140.596 29.4281 136.509 25.1178C136.469 25.0916 136.443 25.0522 136.404 25.026C135.225 23.8207 134.046 22.6285 132.853 21.4363C131.635 20.2047 130.141 19.2352 128.451 18.816C125.241 18.0299 122.123 19.0125 120.014 21.1087L75.1807 53.9933C76.6873 55.107 78.1416 56.1944 79.4517 57.1639C79.478 57.2032 79.5042 57.2163 79.5304 57.2425Z" fill="#7949E8"/>
<path d="M54.3886 111.234C53.3667 103.058 49.5804 95.4464 43.6716 89.7211C43.6061 89.6687 43.5537 89.6163 43.4882 89.5639C43.3441 89.4198 43.1345 89.2364 42.8725 89.0267C31.4873 96.6649 9.14932 110.631 6.60764 113.16L6.37183 113.395C2.61171 117.391 0.436823 122.632 0.266504 128.121C0.214098 134.056 2.50685 139.795 6.6469 144.053C6.66001 144.066 6.67315 144.079 6.68625 144.105C7.99639 145.389 9.30652 146.686 10.6036 147.97C14.1017 151.429 19.7352 151.403 23.1809 147.905L48.8729 128.842C52.0566 124.689 55.476 120.745 54.3886 111.234Z" fill="#7949E8"/>
<path d="M84.2076 94.8175C84.3517 94.372 84.4958 93.9134 84.6268 93.4549C84.7185 93.1143 84.8103 92.7606 84.902 92.4199C84.9937 92.0531 85.0722 91.6993 85.164 91.3456C85.2688 90.8739 85.3474 90.4023 85.4391 89.9306C85.4653 89.7341 85.5046 89.5245 85.5308 89.3149C85.5701 89.0266 85.6095 88.7515 85.6357 88.4502C85.675 88.175 85.7012 87.913 85.7274 87.6248C85.7536 87.3365 85.7798 87.0483 85.7929 86.747C85.8322 86.3408 85.8453 85.9347 85.8584 85.5154C85.8846 84.821 85.8977 84.1136 85.8715 83.393C85.8453 82.227 85.7535 81.074 85.5963 79.9211C85.5701 79.6853 85.5439 79.4626 85.5046 79.2267C85.4522 78.8992 85.3998 78.5848 85.3343 78.2572C85.3343 78.2179 85.3212 78.1917 85.3212 78.1524C85.2688 77.8511 85.2164 77.5759 85.1509 77.2877C85.0723 76.9078 84.9806 76.5148 84.8758 76.1348C84.8365 75.9907 84.7971 75.8334 84.7578 75.6893C84.6137 75.1391 84.4434 74.6019 84.2731 74.0517C82.2816 67.9464 78.5215 62.5748 73.6216 58.4216C72.9141 57.8059 72.1935 57.2163 71.4337 56.666L22.9583 21.1087C20.849 19.0125 17.7308 18.0299 14.521 18.816C12.8309 19.2352 11.3373 20.2047 10.1189 21.4363C8.92665 22.6285 7.74749 23.8207 6.56836 25.026C6.52906 25.0522 6.50291 25.0916 6.46361 25.1178C2.37596 29.4281 0.13554 35.1928 0.253453 41.1277C0.463076 46.6041 2.71656 51.8185 6.51599 55.7752C6.51599 55.7752 6.516 55.7751 6.5291 55.7882C9.89617 59.0767 45.912 81.1003 49.2529 84.4018C49.3184 84.4542 49.3708 84.5066 49.4364 84.559C55.3451 90.2975 59.1314 97.8963 60.1533 106.072C61.398 117.024 56.6814 120.588 53.2357 125.567L55.7905 123.719C55.7905 123.719 59.4196 121.007 63.6514 117.863C64.6209 117.142 65.6166 116.396 66.6255 115.649C68.4072 114.326 70.1497 113.028 71.6695 111.902C71.6957 111.876 71.7219 111.862 71.7481 111.836C77.5258 107.526 81.9541 101.591 84.2076 94.8175Z" fill="#7949E8"/>
<path d="M136.364 113.159C133.102 109.897 96.9814 87.6902 93.7191 84.4149L93.6536 84.3494C93.6667 84.7948 93.6667 85.2402 93.6405 85.6857C93.6143 86.8517 93.5226 88.0046 93.3654 89.1576C93.3392 89.3934 93.313 89.6161 93.2737 89.852C93.2212 90.1795 93.1688 90.4939 93.1033 90.8215C93.1033 90.8608 93.0903 90.887 93.0903 90.9263C93.0379 91.2276 92.9855 91.5027 92.92 91.791C92.8414 92.1709 92.7496 92.564 92.6448 92.9439C92.6055 93.088 92.5662 93.2452 92.5269 93.3894C92.3827 93.9396 92.2124 94.4768 92.0421 95.027C90.0507 101.132 86.2906 106.504 81.3906 110.657C80.6832 111.273 79.9626 111.862 79.2027 112.413L75.5605 115.085C75.8226 115.282 76.0846 115.465 76.3466 115.662C77.3423 116.409 78.3511 117.155 79.3207 117.876L89.7232 125.58L119.778 147.878C123.237 151.376 128.857 151.403 132.355 147.944C133.652 146.66 134.962 145.363 136.273 144.079C136.286 144.053 136.299 144.04 136.312 144.026C140.452 139.768 142.745 134.043 142.692 128.095C142.535 122.606 140.36 117.365 136.587 113.369L136.364 113.159Z" fill="#7949E8"/>
<path d="M179.296 62.5463H210.605V54.455H187.739V43.9013H208.143V35.8101H187.739V26.3117H209.902V18.2205H179.296V62.5463ZM213.062 62.5463H221.857L228.893 51.6407L235.929 62.5463H244.724L233.818 46.012L244.02 30.1814H235.225L228.893 40.3834L222.561 30.1814H213.766L223.968 46.012L213.062 62.5463ZM248.607 73.8036H256.698V59.7319C257.332 60.3652 258.106 60.8577 258.95 61.3502C260.427 62.1241 262.397 62.8981 265.141 62.8981C273.233 62.8981 280.268 55.9326 280.268 46.3638C280.268 36.7951 273.233 29.8296 265.141 29.8296C262.327 29.8296 260.076 30.7443 258.457 31.5886C257.543 32.0811 256.698 32.7143 255.995 33.3475L254.588 30.1814H248.607V73.8036ZM264.086 55.1586C259.513 55.1586 255.995 51.7111 255.995 46.3638C255.995 41.0166 259.513 37.569 264.086 37.569C268.659 37.569 272.177 41.0166 272.177 46.3638C272.177 51.7111 268.659 55.1586 264.086 55.1586ZM286.26 62.5463H294.351V45.3085C294.351 41.087 297.095 38.2726 301.035 38.2726C301.88 38.2726 302.583 38.4133 303.076 38.4837L303.85 38.6244V30.1814L303.146 30.0407C302.653 29.9703 302.161 29.8296 301.387 29.8296C298.924 29.8296 297.025 30.7443 295.688 31.7996C294.914 32.3625 294.21 32.9957 293.648 33.6993L292.24 30.1814H286.26V62.5463ZM329.544 52.6961C329.192 53.1886 328.7 53.6107 328.137 53.9625C327.082 54.5958 325.745 55.1586 323.564 55.1586C319.342 55.1586 316.95 52.6961 316.176 49.53H338.691L338.831 48.4746C338.902 47.8414 339.042 47.1378 339.042 46.3638C339.042 36.5137 332.007 29.8296 323.564 29.8296C314.839 29.8296 307.381 37.2172 307.381 46.3638C307.381 55.5104 314.839 62.8981 323.564 62.8981C330.881 62.8981 336.299 57.5508 337.987 52.6961H329.544ZM315.824 43.9013C316.598 40.313 319.342 37.569 323.564 37.569C327.785 37.569 330.529 40.313 331.303 43.9013H315.824ZM343.248 52.3443C343.881 58.7469 348.173 62.8981 356.616 62.8981C363.933 62.8981 368.577 58.3248 368.577 53.0479C368.577 41.5091 352.042 44.1827 352.042 39.6798C352.042 37.9208 353.449 36.5137 355.912 36.5137C358.375 36.5137 360.134 38.2726 360.485 39.6798H368.225C367.451 34.0511 363.37 29.8296 355.56 29.8296C348.524 29.8296 343.951 34.4029 343.951 39.6798C343.951 50.8668 360.485 48.1228 360.485 52.6961C360.485 54.455 358.726 56.214 355.912 56.214C353.098 56.214 351.339 54.5254 350.987 52.3443H343.248ZM372.793 52.3443C373.426 58.7469 377.718 62.8981 386.161 62.8981C393.478 62.8981 398.122 58.3248 398.122 53.0479C398.122 41.5091 381.587 44.1827 381.587 39.6798C381.587 37.9208 382.995 36.5137 385.457 36.5137C387.92 36.5137 389.679 38.2726 390.03 39.6798H397.77C396.996 34.0511 392.915 29.8296 385.105 29.8296C378.069 29.8296 373.496 34.4029 373.496 39.6798C373.496 50.8668 390.03 48.1228 390.03 52.6961C390.03 54.455 388.271 56.214 385.457 56.214C382.643 56.214 380.884 54.5254 380.532 52.3443H372.793ZM179.296 146.546H187.739V131.771H195.83C204.273 131.771 210.957 125.157 210.957 116.996C210.957 108.834 204.273 102.22 195.83 102.22H179.296V146.546ZM187.739 123.68V110.312H195.83C199.348 110.312 202.514 113.478 202.514 116.996C202.514 120.514 199.348 123.68 195.83 123.68H187.739ZM216.932 146.546H225.023V129.308C225.023 125.087 227.767 122.273 231.707 122.273C232.552 122.273 233.255 122.413 233.748 122.484L234.522 122.624V114.181L233.818 114.041C233.326 113.97 232.833 113.83 232.059 113.83C229.597 113.83 227.697 114.744 226.36 115.8C225.586 116.363 224.883 116.996 224.32 117.699L222.913 114.181H216.932V146.546ZM254.236 121.569C258.809 121.569 262.327 125.017 262.327 130.364C262.327 135.711 258.809 139.159 254.236 139.159C249.663 139.159 246.145 135.711 246.145 130.364C246.145 125.017 249.663 121.569 254.236 121.569ZM254.236 113.83C245.511 113.83 238.053 121.217 238.053 130.364C238.053 139.51 245.511 146.898 254.236 146.898C262.96 146.898 270.418 139.51 270.418 130.364C270.418 121.217 262.96 113.83 254.236 113.83ZM278.828 135.289C278.828 142.325 283.331 146.898 289.734 146.898C290.789 146.898 291.704 146.757 292.478 146.546C292.9 146.476 293.252 146.335 293.604 146.194V139.159L293.041 139.37C292.689 139.44 292.267 139.51 291.493 139.51C288.679 139.51 286.92 137.751 286.92 134.937V121.569H293.955V114.181H286.92V106.442H279.884V111.015C279.884 113.619 278.617 114.885 276.014 114.885H273.903V121.569H278.828V135.289ZM314.357 121.569C318.93 121.569 322.448 125.017 322.448 130.364C322.448 135.711 318.93 139.159 314.357 139.159C309.783 139.159 306.265 135.711 306.265 130.364C306.265 125.017 309.783 121.569 314.357 121.569ZM314.357 113.83C305.632 113.83 298.174 121.217 298.174 130.364C298.174 139.51 305.632 146.898 314.357 146.898C323.081 146.898 330.539 139.51 330.539 130.364C330.539 121.217 323.081 113.83 314.357 113.83ZM357.946 134.585C357.594 135.5 357.031 136.274 356.398 136.907C355.272 138.033 353.513 139.159 350.91 139.159C346.337 139.159 342.819 135.711 342.819 130.364C342.819 125.017 346.337 121.569 350.91 121.569C353.513 121.569 355.272 122.765 356.398 123.891C357.031 124.524 357.594 125.298 357.946 126.142H366.037C364.56 119.74 358.649 113.83 350.91 113.83C342.186 113.83 334.728 121.217 334.728 130.364C334.728 139.51 342.186 146.898 350.91 146.898C358.649 146.898 364.56 140.988 366.037 134.585H357.946ZM386.089 121.569C390.662 121.569 394.18 125.017 394.18 130.364C394.18 135.711 390.662 139.159 386.089 139.159C381.516 139.159 377.998 135.711 377.998 130.364C377.998 125.017 381.516 121.569 386.089 121.569ZM386.089 113.83C377.365 113.83 369.907 121.217 369.907 130.364C369.907 139.51 377.365 146.898 386.089 146.898C394.814 146.898 402.272 139.51 402.272 130.364C402.272 121.217 394.814 113.83 386.089 113.83ZM408.219 146.546H416.31V102.22H408.219V146.546Z" fill="#1C2B4B"/>
</svg>
