<svg width="421" height="168" viewBox="0 0 421 168" fill="none" xmlns="http://www.w3.org/2000/svg">
<path d="M79.2813 56.6962C85.0591 61.0197 89.4874 66.9547 91.7408 73.715C91.8849 74.1605 92.0291 74.619 92.1601 75.0776C92.2518 75.4182 92.3435 75.772 92.4352 76.1126C92.527 76.4794 92.6055 76.8332 92.6972 77.1869C92.802 77.6585 92.8807 78.1302 92.9724 78.6019C92.9986 78.7984 93.0379 79.008 93.0641 79.2176C93.1034 79.5059 93.1427 79.781 93.1689 80.0823C93.2082 80.3575 93.2344 80.6195 93.2606 80.9077C93.2868 81.196 93.313 81.4842 93.3261 81.7855C93.3654 82.1917 93.3785 82.5978 93.3916 83.0171C93.4047 83.2398 93.4047 83.4756 93.4047 83.7114L100.493 78.7198V78.8508C112.061 71.1602 133.626 57.7574 136.194 55.242C136.207 55.2289 136.207 55.2289 136.207 55.2289C140.02 51.2722 142.26 46.0579 142.47 40.5815C142.588 34.6465 140.347 28.8819 136.26 24.5715C136.22 24.5453 136.194 24.506 136.155 24.4798C134.976 23.2744 133.796 22.0822 132.604 20.89C131.386 19.6585 129.892 18.6889 128.202 18.2697C124.992 17.4836 121.874 18.4662 119.765 20.5625L74.9316 53.4471C76.4383 54.5607 77.8926 55.6481 79.2027 56.6176C79.2289 56.6569 79.2551 56.67 79.2813 56.6962Z" fill="white"/>
<path d="M54.1396 110.687C53.1177 102.512 49.3314 94.9002 43.4226 89.1748C43.3571 89.1224 43.3047 89.07 43.2392 89.0176C43.095 88.8735 42.8855 88.6901 42.6234 88.4805C31.2383 96.1186 8.9003 110.085 6.35862 112.613L6.1228 112.849C2.36269 116.845 0.187799 122.086 0.0174806 127.575C-0.0349252 133.51 2.25782 139.249 6.39788 143.507C6.41098 143.52 6.42412 143.533 6.43722 143.559C7.74737 144.843 9.0575 146.14 10.3545 147.424C13.8526 150.883 19.4862 150.856 22.9319 147.358L48.6239 128.296C51.8076 124.143 55.227 120.199 54.1396 110.687Z" fill="white"/>
<path d="M83.9586 94.2712C84.1027 93.8257 84.2468 93.3672 84.3778 92.9086C84.4695 92.568 84.5613 92.2143 84.653 91.8736C84.7447 91.5068 84.8232 91.1531 84.9149 90.7993C85.0197 90.3277 85.0984 89.856 85.1901 89.3844C85.2163 89.1879 85.2556 88.9782 85.2818 88.7686C85.3211 88.4804 85.3604 88.2052 85.3866 87.9039C85.4259 87.6288 85.4522 87.3667 85.4784 87.0785C85.5046 86.7903 85.5308 86.502 85.5439 86.2007C85.5832 85.7946 85.5962 85.3884 85.6093 84.9692C85.6355 84.2748 85.6487 83.5673 85.6225 82.8467C85.5963 81.6807 85.5045 80.5278 85.3473 79.3749C85.3211 79.139 85.2949 78.9163 85.2556 78.6805C85.2032 78.3529 85.1508 78.0385 85.0853 77.711C85.0853 77.6717 85.0721 77.6455 85.0721 77.6061C85.0197 77.3048 84.9674 77.0297 84.9019 76.7414C84.8233 76.3615 84.7315 75.9685 84.6267 75.5886C84.5874 75.4444 84.5481 75.2872 84.5088 75.1431C84.3647 74.5928 84.1944 74.0556 84.024 73.5054C82.0326 67.4001 78.2725 62.0285 73.3726 57.8754C72.6651 57.2596 71.9445 56.67 71.1846 56.1198L22.7093 20.5625C20.5999 18.4662 17.4818 17.4836 14.2719 18.2697C12.5818 18.6889 11.0883 19.6585 9.86986 20.89C8.67763 22.0822 7.49847 23.2744 6.31934 24.4798C6.28003 24.506 6.25389 24.5453 6.21459 24.5715C2.12693 28.8819 -0.113483 34.6465 0.00442963 40.5815C0.214053 46.0579 2.46754 51.2722 6.26696 55.2289C6.26696 55.2289 6.26697 55.2289 6.28008 55.242C9.64715 58.5304 45.663 80.554 49.0039 83.8556C49.0694 83.908 49.1218 83.9604 49.1873 84.0128C55.0961 89.7512 58.8824 97.35 59.9043 105.525C61.1489 116.478 56.4324 120.042 52.9867 125.02L55.5415 123.173C55.5415 123.173 59.1706 120.461 63.4024 117.317C64.3719 116.596 65.3676 115.849 66.3764 115.102C68.1582 113.779 69.9007 112.482 71.4205 111.355C71.4467 111.329 71.4729 111.316 71.4991 111.29C77.2768 106.98 81.7051 101.045 83.9586 94.2712Z" fill="white"/>
<path d="M136.115 112.613C132.853 109.351 96.7324 87.144 93.4701 83.8686L93.4046 83.8031C93.4177 84.2485 93.4177 84.694 93.3915 85.1394C93.3653 86.3055 93.2736 87.4584 93.1164 88.6113C93.0901 88.8471 93.0639 89.0699 93.0246 89.3057C92.9722 89.6332 92.9198 89.9477 92.8543 90.2752C92.8543 90.3145 92.8413 90.3407 92.8413 90.38C92.7889 90.6813 92.7365 90.9565 92.6709 91.2447C92.5923 91.6247 92.5006 92.0177 92.3958 92.3976C92.3565 92.5418 92.3171 92.699 92.2778 92.8431C92.1337 93.3934 91.9634 93.9305 91.7931 94.4808C89.8017 100.586 86.0415 105.958 81.1416 110.111C80.4341 110.727 79.7136 111.316 78.9537 111.866L75.3115 114.539C75.5736 114.736 75.8355 114.919 76.0976 115.116C77.0933 115.862 78.1021 116.609 79.0716 117.33L89.4742 125.033L119.529 147.332C122.988 150.83 128.608 150.856 132.106 147.398C133.403 146.114 134.713 144.817 136.024 143.533C136.037 143.506 136.05 143.493 136.063 143.48C140.203 139.222 142.496 133.497 142.443 127.549C142.286 122.059 140.111 116.819 136.338 112.823L136.115 112.613Z" fill="white"/>
<path d="M179.047 62H210.356V53.9088H187.49V43.355H207.894V35.2638H187.49V25.7654H209.653V17.6742H179.047V62ZM212.813 62H221.608L228.644 51.0944L235.68 62H244.475L233.569 45.4658L243.771 29.6351H234.976L228.644 39.8371L222.312 29.6351H213.517L223.719 45.4658L212.813 62ZM248.358 73.2573H256.449V59.1857C257.083 59.8189 257.857 60.3114 258.701 60.8039C260.178 61.5778 262.148 62.3518 264.892 62.3518C272.984 62.3518 280.019 55.3863 280.019 45.8176C280.019 36.2488 272.984 29.2833 264.892 29.2833C262.078 29.2833 259.827 30.198 258.208 31.0423C257.294 31.5348 256.449 32.168 255.746 32.8013L254.339 29.6351H248.358V73.2573ZM263.837 54.6124C259.264 54.6124 255.746 51.1648 255.746 45.8176C255.746 40.4703 259.264 37.0228 263.837 37.0228C268.41 37.0228 271.928 40.4703 271.928 45.8176C271.928 51.1648 268.41 54.6124 263.837 54.6124ZM286.011 62H294.102V44.7622C294.102 40.5407 296.846 37.7264 300.786 37.7264C301.63 37.7264 302.334 37.8671 302.827 37.9374L303.601 38.0781V29.6351L302.897 29.4944C302.404 29.4241 301.912 29.2833 301.138 29.2833C298.675 29.2833 296.776 30.198 295.439 31.2534C294.665 31.8162 293.961 32.4495 293.399 33.1531L291.991 29.6351H286.011V62ZM329.295 52.1498C328.943 52.6423 328.451 53.0645 327.888 53.4163C326.833 54.0495 325.496 54.6124 323.315 54.6124C319.093 54.6124 316.701 52.1498 315.927 48.9837H338.442L338.582 47.9283C338.653 47.2951 338.793 46.5915 338.793 45.8176C338.793 35.9674 331.758 29.2833 323.315 29.2833C314.59 29.2833 307.132 36.671 307.132 45.8176C307.132 54.9642 314.59 62.3518 323.315 62.3518C330.632 62.3518 336.049 57.0046 337.738 52.1498H329.295ZM315.575 43.355C316.349 39.7667 319.093 37.0228 323.315 37.0228C327.536 37.0228 330.28 39.7667 331.054 43.355H315.575ZM342.998 51.798C343.632 58.2006 347.924 62.3518 356.367 62.3518C363.684 62.3518 368.328 57.7785 368.328 52.5016C368.328 40.9628 351.793 43.6365 351.793 39.1335C351.793 37.3746 353.2 35.9674 355.663 35.9674C358.126 35.9674 359.885 37.7264 360.236 39.1335H367.976C367.202 33.5048 363.121 29.2833 355.311 29.2833C348.275 29.2833 343.702 33.8566 343.702 39.1335C343.702 50.3205 360.236 47.5765 360.236 52.1498C360.236 53.9088 358.477 55.6677 355.663 55.6677C352.849 55.6677 351.09 53.9791 350.738 51.798H342.998ZM372.544 51.798C373.177 58.2006 377.469 62.3518 385.912 62.3518C393.229 62.3518 397.873 57.7785 397.873 52.5016C397.873 40.9628 381.338 43.6365 381.338 39.1335C381.338 37.3746 382.745 35.9674 385.208 35.9674C387.671 35.9674 389.43 37.7264 389.781 39.1335H397.521C396.747 33.5048 392.666 29.2833 384.856 29.2833C377.82 29.2833 373.247 33.8566 373.247 39.1335C373.247 50.3205 389.781 47.5765 389.781 52.1498C389.781 53.9088 388.022 55.6677 385.208 55.6677C382.394 55.6677 380.635 53.9791 380.283 51.798H372.544ZM179.047 146H187.49V131.225H195.581C204.024 131.225 210.708 124.611 210.708 116.449C210.708 108.288 204.024 101.674 195.581 101.674H179.047V146ZM187.49 123.134V109.765H195.581C199.099 109.765 202.265 112.932 202.265 116.449C202.265 119.967 199.099 123.134 195.581 123.134H187.49ZM216.683 146H224.774V128.762C224.774 124.541 227.518 121.726 231.458 121.726C232.303 121.726 233.006 121.867 233.499 121.937L234.273 122.078V113.635L233.569 113.494C233.077 113.424 232.584 113.283 231.81 113.283C229.348 113.283 227.448 114.198 226.111 115.253C225.337 115.816 224.634 116.449 224.071 117.153L222.664 113.635H216.683V146ZM253.987 121.023C258.56 121.023 262.078 124.47 262.078 129.818C262.078 135.165 258.56 138.612 253.987 138.612C249.414 138.612 245.896 135.165 245.896 129.818C245.896 124.47 249.414 121.023 253.987 121.023ZM253.987 113.283C245.262 113.283 237.804 120.671 237.804 129.818C237.804 138.964 245.262 146.352 253.987 146.352C262.711 146.352 270.169 138.964 270.169 129.818C270.169 120.671 262.711 113.283 253.987 113.283ZM278.579 134.743C278.579 141.778 283.082 146.352 289.485 146.352C290.54 146.352 291.455 146.211 292.229 146C292.651 145.93 293.003 145.789 293.355 145.648V138.612L292.792 138.823C292.44 138.894 292.018 138.964 291.244 138.964C288.43 138.964 286.671 137.205 286.671 134.391V121.023H293.706V113.635H286.671V105.896H279.635V110.469C279.635 113.072 278.368 114.339 275.765 114.339H273.654V121.023H278.579V134.743ZM314.108 121.023C318.681 121.023 322.199 124.47 322.199 129.818C322.199 135.165 318.681 138.612 314.108 138.612C309.534 138.612 306.016 135.165 306.016 129.818C306.016 124.47 309.534 121.023 314.108 121.023ZM314.108 113.283C305.383 113.283 297.925 120.671 297.925 129.818C297.925 138.964 305.383 146.352 314.108 146.352C322.832 146.352 330.29 138.964 330.29 129.818C330.29 120.671 322.832 113.283 314.108 113.283ZM357.697 134.039C357.345 134.954 356.782 135.728 356.149 136.361C355.023 137.487 353.264 138.612 350.661 138.612C346.088 138.612 342.57 135.165 342.57 129.818C342.57 124.47 346.088 121.023 350.661 121.023C353.264 121.023 355.023 122.219 356.149 123.345C356.782 123.978 357.345 124.752 357.697 125.596H365.788C364.31 119.193 358.4 113.283 350.661 113.283C341.937 113.283 334.479 120.671 334.479 129.818C334.479 138.964 341.937 146.352 350.661 146.352C358.4 146.352 364.31 140.442 365.788 134.039H357.697ZM385.84 121.023C390.413 121.023 393.931 124.47 393.931 129.818C393.931 135.165 390.413 138.612 385.84 138.612C381.267 138.612 377.749 135.165 377.749 129.818C377.749 124.47 381.267 121.023 385.84 121.023ZM385.84 113.283C377.116 113.283 369.658 120.671 369.658 129.818C369.658 138.964 377.116 146.352 385.84 146.352C394.565 146.352 402.023 138.964 402.023 129.818C402.023 120.671 394.565 113.283 385.84 113.283ZM407.97 146H416.061V101.674H407.97V146Z" fill="white"/>
</svg>
