<svg width="143" height="133" viewBox="0 0 143 133" fill="none" xmlns="http://www.w3.org/2000/svg">
<path d="M79.5304 39.2425C85.3081 43.566 89.7364 49.5009 91.9898 56.2613C92.134 56.7067 92.2781 57.1653 92.4091 57.6238C92.5008 57.9645 92.5926 58.3182 92.6843 58.6589C92.776 59.0257 92.8545 59.3794 92.9462 59.7332C93.051 60.2048 93.1297 60.6765 93.2214 61.1481C93.2476 61.3447 93.2869 61.5543 93.3131 61.7639C93.3524 62.0521 93.3917 62.3273 93.4179 62.6286C93.4572 62.9037 93.4834 63.1658 93.5096 63.454C93.5358 63.7422 93.5621 64.0304 93.5752 64.3318C93.6145 64.7379 93.6275 65.1441 93.6406 65.5633C93.6537 65.786 93.6538 66.0219 93.6538 66.2577L100.742 61.266V61.3971C112.31 53.7065 133.875 40.3037 136.443 37.7882C136.456 37.7751 136.456 37.7751 136.456 37.7751C140.269 33.8185 142.509 28.6041 142.719 23.1277C142.837 17.1928 140.596 11.4281 136.509 7.11776C136.469 7.09156 136.443 7.05224 136.404 7.02604C135.225 5.82071 134.046 4.62849 132.853 3.43626C131.635 2.20472 130.141 1.23521 128.451 0.815967C125.241 0.0298795 122.123 1.01249 120.014 3.10872L75.1807 35.9933C76.6873 37.107 78.1416 38.1944 79.4518 39.1639C79.478 39.2032 79.5042 39.2163 79.5304 39.2425Z" fill="#7949E8"/>
<path d="M54.3886 93.2337C53.3667 85.0584 49.5804 77.4464 43.6716 71.7211C43.6061 71.6687 43.5537 71.6163 43.4882 71.5639C43.3441 71.4198 43.1345 71.2364 42.8725 71.0267C31.4873 78.6649 9.14932 92.631 6.60764 95.1596L6.37183 95.3954C2.61171 99.3913 0.436823 104.632 0.266504 110.121C0.214098 116.056 2.50685 121.795 6.6469 126.053C6.66001 126.066 6.67315 126.079 6.68625 126.105C7.99639 127.389 9.30652 128.686 10.6036 129.97C14.1017 133.429 19.7352 133.403 23.1809 129.905L48.8729 110.842C52.0566 106.689 55.476 102.745 54.3886 93.2337Z" fill="#7949E8"/>
<path d="M84.2076 76.8175C84.3517 76.372 84.4958 75.9134 84.6268 75.4549C84.7185 75.1143 84.8103 74.7605 84.902 74.4199C84.9937 74.0531 85.0722 73.6993 85.164 73.3456C85.2688 72.8739 85.3474 72.4023 85.4391 71.9306C85.4653 71.7341 85.5046 71.5245 85.5308 71.3149C85.5701 71.0266 85.6095 70.7515 85.6357 70.4502C85.675 70.175 85.7012 69.913 85.7274 69.6248C85.7536 69.3365 85.7798 69.0483 85.7929 68.747C85.8322 68.3408 85.8453 67.9347 85.8584 67.5154C85.8846 66.821 85.8977 66.1136 85.8715 65.393C85.8453 64.227 85.7535 63.074 85.5963 61.9211C85.5701 61.6853 85.5439 61.4626 85.5046 61.2267C85.4522 60.8992 85.3998 60.5848 85.3343 60.2572C85.3343 60.2179 85.3212 60.1917 85.3212 60.1524C85.2688 59.8511 85.2164 59.5759 85.1509 59.2877C85.0723 58.9078 84.9806 58.5148 84.8758 58.1348C84.8365 57.9907 84.7971 57.8334 84.7578 57.6893C84.6137 57.1391 84.4434 56.6019 84.2731 56.0517C82.2816 49.9464 78.5215 44.5748 73.6216 40.4216C72.9141 39.8059 72.1935 39.2163 71.4337 38.666L22.9583 3.10872C20.849 1.01249 17.7308 0.0298795 14.521 0.815967C12.8309 1.23521 11.3373 2.20472 10.1189 3.43626C8.92665 4.62849 7.74749 5.82071 6.56836 7.02604C6.52906 7.05224 6.50291 7.09156 6.46361 7.11776C2.37596 11.4281 0.13554 17.1928 0.253453 23.1277C0.463076 28.6041 2.71656 33.8185 6.51599 37.7751C6.51599 37.7751 6.516 37.7751 6.5291 37.7882C9.89617 41.0767 45.912 63.1003 49.2529 66.4018C49.3184 66.4542 49.3708 66.5066 49.4364 66.559C55.3451 72.2975 59.1314 79.8963 60.1533 88.0716C61.398 99.0244 56.6814 102.588 53.2357 107.567L55.7905 105.719C55.7905 105.719 59.4196 103.007 63.6514 99.8629C64.6209 99.1423 65.6166 98.3955 66.6254 97.6488C68.4072 96.3255 70.1497 95.0285 71.6695 93.9018C71.6957 93.8756 71.7219 93.8625 71.7481 93.8363C77.5258 89.5259 81.9541 83.5909 84.2076 76.8175Z" fill="#7949E8"/>
<path d="M136.364 95.1594C133.102 91.8972 96.9814 69.6902 93.7191 66.4149L93.6536 66.3494C93.6667 66.7948 93.6667 67.2402 93.6405 67.6857C93.6143 68.8517 93.5226 70.0046 93.3654 71.1576C93.3392 71.3934 93.313 71.6161 93.2737 71.852C93.2212 72.1795 93.1688 72.4939 93.1033 72.8215C93.1033 72.8608 93.0903 72.887 93.0903 72.9263C93.0379 73.2276 92.9855 73.5027 92.92 73.791C92.8414 74.1709 92.7496 74.564 92.6448 74.9439C92.6055 75.088 92.5662 75.2452 92.5269 75.3894C92.3827 75.9396 92.2124 76.4768 92.0421 77.027C90.0507 83.1323 86.2906 88.5039 81.3906 92.6571C80.6832 93.2728 79.9626 93.8624 79.2027 94.4127L75.5605 97.0854C75.8226 97.2819 76.0846 97.4653 76.3466 97.6618C77.3423 98.4086 78.3511 99.1554 79.3207 99.876L89.7232 107.58L119.778 129.878C123.237 133.376 128.857 133.403 132.355 129.944C133.652 128.66 134.962 127.363 136.273 126.079C136.286 126.053 136.299 126.04 136.312 126.026C140.452 121.768 142.745 116.043 142.692 110.095C142.535 104.606 140.36 99.365 136.587 95.3691L136.364 95.1594Z" fill="#7949E8"/>
</svg>
