<svg width="113" height="114" viewBox="0 0 113 114" fill="none" xmlns="http://www.w3.org/2000/svg">
<path d="M112.257 14.617V14.607C112.227 9.32701 109.237 4.74701 104.877 2.43701C96.2167 5.02701 85.6367 10.217 77.2767 20.717C69.3767 30.847 65.1867 43.377 65.3867 56.227C65.3867 56.357 65.3867 56.477 65.3967 56.607C65.3967 56.867 65.4067 57.127 65.4067 57.387C69.7167 57.377 74.0367 57.377 78.3467 57.367H78.8467C87.3967 57.127 95.5667 53.747 101.797 47.877C108.407 41.387 112.197 32.547 112.317 23.287C112.317 23.257 112.317 23.227 112.317 23.197C112.297 20.317 112.277 17.467 112.257 14.617Z" fill="#006CFF"/>
<path d="M47.6972 102.487C41.2772 109.167 32.4772 113.047 23.2172 113.277C23.1472 113.277 23.0772 113.277 23.0072 113.277C20.1972 113.287 17.3772 113.307 14.5572 113.317C8.75718 113.347 3.54719 109.757 1.50719 104.327C0.927187 102.797 0.627187 101.167 0.617188 99.527L0.367188 54.567C0.727188 44.317 3.82719 34.347 9.32719 25.697C9.57719 25.317 9.82718 24.937 10.0972 24.547C10.1272 24.507 10.1572 24.457 10.1872 24.417C10.4772 23.987 10.7672 23.567 11.0772 23.147C11.2872 22.857 11.4972 22.577 11.7272 22.297C12.8372 20.867 14.0072 19.487 15.2472 18.177C30.2272 2.40699 49.3472 1.227 53.3372 1.077L98.2972 0.826999C99.8772 0.816999 101.447 1.07699 102.947 1.59699C93.6672 3.29699 79.3072 8.06699 68.5972 21.507C60.6972 31.637 56.5072 44.167 56.7072 57.017C56.7072 57.147 56.7072 57.267 56.7172 57.397C56.7772 64.737 56.8472 72.087 56.9272 79.437C56.9272 79.447 56.9272 79.447 56.9272 79.457C56.7872 88.007 53.4972 96.197 47.6972 102.487Z" fill="#006CFF"/>
</svg>
