<svg width="498" height="125" viewBox="0 0 498 125" fill="none" xmlns="http://www.w3.org/2000/svg">
<path d="M112.257 19.617V19.607C112.227 14.327 109.237 9.74701 104.877 7.43701C96.2167 10.027 85.6367 15.217 77.2767 25.717C69.3767 35.847 65.1867 48.377 65.3867 61.227C65.3867 61.357 65.3867 61.477 65.3967 61.607C65.3967 61.867 65.4067 62.127 65.4067 62.387C69.7167 62.377 74.0367 62.377 78.3467 62.367H78.8467C87.3967 62.127 95.5667 58.747 101.797 52.877C108.407 46.387 112.197 37.547 112.317 28.287C112.317 28.257 112.317 28.227 112.317 28.197C112.297 25.317 112.277 22.467 112.257 19.617Z" fill="#006CFF"/>
<path d="M47.6972 107.487C41.2772 114.167 32.4772 118.047 23.2172 118.277C23.1472 118.277 23.0772 118.277 23.0072 118.277C20.1972 118.287 17.3772 118.307 14.5572 118.317C8.75718 118.347 3.54719 114.757 1.50719 109.327C0.927187 107.797 0.627187 106.167 0.617188 104.527L0.367188 59.567C0.727188 49.317 3.82719 39.347 9.32719 30.697C9.57719 30.317 9.82718 29.937 10.0972 29.547C10.1272 29.507 10.1572 29.457 10.1872 29.417C10.4772 28.987 10.7672 28.567 11.0772 28.147C11.2872 27.857 11.4972 27.577 11.7272 27.297C12.8372 25.867 14.0072 24.487 15.2472 23.177C30.2272 7.40699 49.3472 6.227 53.3372 6.077L98.2972 5.827C99.8772 5.817 101.447 6.07699 102.947 6.59699C93.6672 8.29699 79.3072 13.067 68.5972 26.507C60.6972 36.637 56.5072 49.167 56.7072 62.017C56.7072 62.147 56.7072 62.267 56.7172 62.397C56.7772 69.737 56.8472 77.087 56.9272 84.437C56.9272 84.447 56.9272 84.447 56.9272 84.457C56.7872 93.007 53.4972 101.197 47.6972 107.487Z" fill="#006CFF"/>
<path d="M152.082 92.072H164.571V70.217H176.539C189.027 70.217 198.914 60.4343 198.914 48.3621C198.914 36.2898 189.027 26.5071 176.539 26.5071H152.082V92.072ZM164.571 58.2488V38.4753H176.539C181.742 38.4753 186.426 43.1585 186.426 48.3621C186.426 53.5656 181.742 58.2488 176.539 58.2488H164.571ZM235.38 92.072H244.226V62.4117C244.226 51.5883 236.316 43.6789 225.493 43.6789C213.525 43.6789 206.344 51.0679 205.199 59.8099H217.167C217.375 58.8732 217.792 57.9366 218.416 57.2081C219.561 55.9593 221.226 54.6063 224.452 54.6063C229.135 54.6063 232.257 57.6244 232.257 62.932C210.403 62.932 203.638 69.5926 203.638 79.0631C203.638 86.9725 209.362 92.5923 219.769 92.5923C223.932 92.5923 227.262 91.3435 229.656 89.9905C231.009 89.262 232.153 88.3254 233.298 87.3888L235.38 92.072ZM232.257 73.3391C232.257 79.1671 228.095 83.2259 221.85 83.2259C218.208 83.2259 215.606 80.6241 215.606 78.0223C215.606 73.8595 218.208 71.2577 232.257 71.2577V73.3391ZM255.112 92.072H267.081V65.5338C267.081 59.2895 271.139 55.1267 276.967 55.1267C282.795 55.1267 286.854 59.2895 286.854 65.5338V92.072H298.822V63.9727C298.822 51.4842 290.913 43.6789 279.569 43.6789C275.51 43.6789 272.284 45.0318 269.891 46.2806C268.538 47.0091 267.185 47.9458 266.04 48.8824L263.959 44.1992H255.112V92.072ZM345.175 92.072H354.021V26.5071H342.053V48.3621C341.116 47.5295 339.971 46.801 338.722 46.0725C336.537 44.9277 333.415 43.6789 329.564 43.6789C317.596 43.6789 307.189 53.9819 307.189 68.1356C307.189 82.2893 317.596 92.5923 329.564 92.5923C333.727 92.5923 337.057 91.3435 339.451 89.9905C340.804 89.262 341.949 88.3254 343.093 87.3888L345.175 92.072ZM331.125 81.1445C324.361 81.1445 319.157 76.045 319.157 68.1356C319.157 60.2262 324.361 55.1267 331.125 55.1267C337.89 55.1267 343.093 60.2262 343.093 68.1356C343.093 76.045 337.89 81.1445 331.125 81.1445ZM386.819 55.1267C393.584 55.1267 398.788 60.2262 398.788 68.1356C398.788 76.045 393.584 81.1445 386.819 81.1445C380.055 81.1445 374.851 76.045 374.851 68.1356C374.851 60.2262 380.055 55.1267 386.819 55.1267ZM386.819 43.6789C373.915 43.6789 362.883 54.6063 362.883 68.1356C362.883 81.6648 373.915 92.5923 386.819 92.5923C399.724 92.5923 410.756 81.6648 410.756 68.1356C410.756 54.6063 399.724 43.6789 386.819 43.6789ZM419.553 92.072H431.521V66.5745C431.521 60.3302 435.58 56.1674 441.408 56.1674C442.657 56.1674 443.698 56.3755 444.426 56.4796L445.571 56.6878V44.1992L444.53 43.9911C443.802 43.887 443.073 43.6789 441.928 43.6789C438.286 43.6789 435.476 45.0318 433.499 46.5928C432.354 47.4254 431.313 48.3621 430.481 49.4028L428.399 44.1992H419.553V92.072ZM483.057 92.072H491.903V62.4117C491.903 51.5883 483.994 43.6789 473.17 43.6789C461.202 43.6789 454.021 51.0679 452.876 59.8099H464.844C465.053 58.8732 465.469 57.9366 466.093 57.2081C467.238 55.9593 468.903 54.6063 472.129 54.6063C476.813 54.6063 479.935 57.6244 479.935 62.932C458.08 62.932 451.315 69.5926 451.315 79.0631C451.315 86.9725 457.039 92.5923 467.446 92.5923C471.609 92.5923 474.939 91.3435 477.333 89.9905C478.686 89.262 479.831 88.3254 480.975 87.3888L483.057 92.072ZM479.935 73.3391C479.935 79.1671 475.772 83.2259 469.528 83.2259C465.885 83.2259 463.283 80.6241 463.283 78.0223C463.283 73.8595 465.885 71.2577 479.935 71.2577V73.3391Z" fill="#1C2B4B"/>
</svg>
