<svg width="498" height="125" viewBox="0 0 498 125" fill="none" xmlns="http://www.w3.org/2000/svg">
<path d="M112.257 19.7151V19.7052C112.227 14.4252 109.237 9.84516 104.877 7.53516C96.2167 10.1252 85.6367 15.3152 77.2767 25.8152C69.3767 35.9452 65.1867 48.4752 65.3867 61.3252C65.3867 61.4552 65.3867 61.5752 65.3967 61.7052C65.3967 61.9652 65.4067 62.2252 65.4067 62.4852C69.7167 62.4752 74.0367 62.4751 78.3467 62.4651H78.8467C87.3967 62.2251 95.5667 58.8452 101.797 52.9752C108.407 46.4852 112.197 37.6452 112.317 28.3852C112.317 28.3552 112.317 28.3252 112.317 28.2952C112.297 25.4152 112.277 22.5551 112.257 19.7151Z" fill="white"/>
<path d="M47.6972 107.585C41.2772 114.265 32.4772 118.145 23.2172 118.375C23.1472 118.375 23.0772 118.375 23.0072 118.375C20.1972 118.385 17.3772 118.405 14.5572 118.415C8.75718 118.445 3.54719 114.855 1.50719 109.425C0.927187 107.895 0.627187 106.265 0.617188 104.625L0.367188 59.6651C0.727188 49.4151 3.82719 39.4451 9.32719 30.7951C9.57719 30.4151 9.82718 30.0351 10.0972 29.6451C10.1272 29.6051 10.1572 29.5551 10.1872 29.5151C10.4772 29.0851 10.7672 28.6651 11.0772 28.2451C11.2872 27.9551 11.4972 27.6751 11.7272 27.3951C12.8372 25.9651 14.0072 24.5851 15.2472 23.2751C30.2272 7.50506 49.3472 6.32508 53.3372 6.17508L98.2972 5.92508C99.8772 5.91508 101.447 6.1751 102.947 6.6951C93.6672 8.3951 79.3072 13.1651 68.5972 26.6051C60.6972 36.7351 56.5072 49.2651 56.7072 62.1151C56.7072 62.2451 56.7072 62.3651 56.7172 62.4951C56.7772 69.8351 56.8472 77.1851 56.9272 84.5351C56.9272 84.5451 56.9272 84.5451 56.9272 84.5551C56.7872 93.0951 53.4972 101.295 47.6972 107.585Z" fill="white"/>
<path d="M152.082 92.17H164.571V70.3151H176.539C189.027 70.3151 198.914 60.5324 198.914 48.4601C198.914 36.3879 189.027 26.6052 176.539 26.6052H152.082V92.17ZM164.571 58.3469V38.5734H176.539C181.742 38.5734 186.426 43.2566 186.426 48.4601C186.426 53.6637 181.742 58.3469 176.539 58.3469H164.571ZM235.38 92.17H244.226V62.5097C244.226 51.6863 236.316 43.7769 225.493 43.7769C213.525 43.7769 206.344 51.166 205.199 59.908H217.167C217.375 58.9713 217.792 58.0347 218.416 57.3062C219.561 56.0573 221.226 54.7044 224.452 54.7044C229.135 54.7044 232.257 57.7225 232.257 63.0301C210.403 63.0301 203.638 69.6907 203.638 79.1611C203.638 87.0706 209.362 92.6904 219.769 92.6904C223.932 92.6904 227.262 91.4415 229.656 90.0886C231.009 89.3601 232.153 88.4235 233.298 87.4868L235.38 92.17ZM232.257 73.4372C232.257 79.2652 228.095 83.324 221.85 83.324C218.208 83.324 215.606 80.7222 215.606 78.1204C215.606 73.9576 218.208 71.3558 232.257 71.3558V73.4372ZM255.112 92.17H267.081V65.6319C267.081 59.3876 271.139 55.2248 276.967 55.2248C282.795 55.2248 286.854 59.3876 286.854 65.6319V92.17H298.822V64.0708C298.822 51.5823 290.913 43.7769 279.569 43.7769C275.51 43.7769 272.284 45.1299 269.891 46.3787C268.538 47.1072 267.185 48.0439 266.04 48.9805L263.959 44.2973H255.112V92.17ZM345.175 92.17H354.021V26.6052H342.053V48.4601C341.116 47.6276 339.971 46.8991 338.722 46.1706C336.537 45.0258 333.415 43.7769 329.564 43.7769C317.596 43.7769 307.189 54.08 307.189 68.2337C307.189 82.3874 317.596 92.6904 329.564 92.6904C333.727 92.6904 337.057 91.4415 339.451 90.0886C340.804 89.3601 341.949 88.4235 343.093 87.4868L345.175 92.17ZM331.125 81.2426C324.361 81.2426 319.157 76.1431 319.157 68.2337C319.157 60.3243 324.361 55.2248 331.125 55.2248C337.89 55.2248 343.093 60.3243 343.093 68.2337C343.093 76.1431 337.89 81.2426 331.125 81.2426ZM386.819 55.2248C393.584 55.2248 398.788 60.3243 398.788 68.2337C398.788 76.1431 393.584 81.2426 386.819 81.2426C380.055 81.2426 374.851 76.1431 374.851 68.2337C374.851 60.3243 380.055 55.2248 386.819 55.2248ZM386.819 43.7769C373.915 43.7769 362.883 54.7044 362.883 68.2337C362.883 81.7629 373.915 92.6904 386.819 92.6904C399.724 92.6904 410.756 81.7629 410.756 68.2337C410.756 54.7044 399.724 43.7769 386.819 43.7769ZM419.553 92.17H431.521V66.6726C431.521 60.4283 435.58 56.2655 441.408 56.2655C442.657 56.2655 443.698 56.4736 444.426 56.5777L445.571 56.7858V44.2973L444.53 44.0891C443.802 43.9851 443.073 43.7769 441.928 43.7769C438.286 43.7769 435.476 45.1299 433.499 46.6909C432.354 47.5235 431.313 48.4601 430.481 49.5009L428.399 44.2973H419.553V92.17ZM483.057 92.17H491.903V62.5097C491.903 51.6863 483.994 43.7769 473.17 43.7769C461.202 43.7769 454.021 51.166 452.876 59.908H464.844C465.053 58.9713 465.469 58.0347 466.093 57.3062C467.238 56.0573 468.903 54.7044 472.129 54.7044C476.813 54.7044 479.935 57.7225 479.935 63.0301C458.08 63.0301 451.315 69.6907 451.315 79.1611C451.315 87.0706 457.039 92.6904 467.446 92.6904C471.609 92.6904 474.939 91.4415 477.333 90.0886C478.686 89.3601 479.831 88.4235 480.975 87.4868L483.057 92.17ZM479.935 73.4372C479.935 79.2652 475.772 83.324 469.528 83.324C465.885 83.324 463.283 80.7222 463.283 78.1204C463.283 73.9576 465.885 71.3558 479.935 71.3558V73.4372Z" fill="white"/>
</svg>
