<svg width="394" height="169" viewBox="0 0 394 169" fill="none" xmlns="http://www.w3.org/2000/svg">
<path d="M170.885 132.802L157.66 114.992C153.986 111.943 151.133 107.982 142.429 106.849C136.084 106.028 127.316 109.416 123.563 115.318C123.563 115.318 123.563 115.318 123.563 115.331C128.97 123.135 141.661 143.577 143.824 145.727L143.993 145.896C147.107 148.828 151.185 150.522 155.471 150.652C160.097 150.691 164.579 148.906 167.888 145.675C167.901 145.662 167.901 145.662 167.927 145.649C168.917 144.633 169.933 143.603 170.937 142.6C173.621 139.877 173.608 135.499 170.885 132.802Z" fill="#F1A940"/>
<path d="M153.503 109.389L152.057 107.409C152.057 107.409 149.946 104.582 147.497 101.285C146.937 100.53 146.338 99.748 145.764 98.9663C144.722 97.5722 143.719 96.2172 142.833 95.0316C142.82 95.0055 142.807 94.9795 142.781 94.9664C139.419 90.4584 134.781 87.0188 129.517 85.2599C129.165 85.1426 128.814 85.0384 128.449 84.9342C128.188 84.869 127.915 84.7909 127.641 84.7257C127.354 84.6606 127.081 84.5954 126.807 84.5303C126.442 84.4391 126.064 84.387 125.7 84.3218C125.543 84.2958 125.387 84.2697 125.218 84.2567C124.996 84.2306 124.775 84.1915 124.54 84.1655C124.332 84.1394 124.11 84.1134 123.902 84.1003C123.68 84.0743 123.459 84.0482 123.224 84.0482C122.911 84.0221 122.599 84.0091 122.273 83.9961C121.739 83.9831 121.179 83.97 120.631 83.9831C119.732 84.0091 118.82 84.0743 117.921 84.1915C117.752 84.2046 117.57 84.2306 117.387 84.2567C117.14 84.2958 116.879 84.3479 116.632 84.4C116.606 84.4 116.579 84.413 116.54 84.413C116.306 84.4521 116.084 84.5042 115.863 84.5433C115.576 84.6085 115.264 84.6866 114.964 84.7518C114.847 84.7778 114.742 84.8169 114.612 84.843C114.182 84.9602 113.752 85.0905 113.335 85.2208C108.58 86.7843 104.397 89.7028 101.153 93.5202C100.671 94.0674 100.215 94.6407 99.7852 95.227L88.2285 110.966L104.801 133.284C105.427 133.897 105.896 134.6 106.235 135.343C112.163 126.184 119.746 114.158 121.387 112.49C121.426 112.438 121.465 112.399 121.517 112.347C125.986 107.735 131.901 104.803 138.273 103.995C146.846 103.044 149.621 106.719 153.503 109.389Z" fill="#F1A940"/>
<path d="M88.0595 114.992C84.3853 111.943 81.5321 107.982 72.8287 106.849C66.4837 106.028 57.7152 109.416 53.9629 115.318C53.9629 115.318 72.06 143.564 74.2228 145.727L74.3921 145.896C77.5061 148.828 81.5842 150.522 85.8707 150.652C90.496 150.691 94.9779 148.906 98.2873 145.675C98.3003 145.662 98.3002 145.662 98.3263 145.649C99.3165 144.633 100.333 143.603 101.336 142.6C104.033 139.877 104.007 135.486 101.284 132.802L88.0595 114.992Z" fill="#F1A940"/>
<path d="M83.9167 109.389L82.4705 107.396C82.4705 107.396 80.3598 104.569 77.9104 101.272C77.3501 100.517 76.7637 99.735 76.1905 98.9533C75.1612 97.5592 74.1449 96.2042 73.272 95.0185C73.2459 94.9925 73.2459 94.9795 73.2198 94.9534C69.8584 90.4584 65.2332 87.0057 59.9565 85.2468C59.6047 85.1296 59.2528 85.0253 58.888 84.9211C58.6274 84.8429 58.3538 84.7778 58.0802 84.7127C57.7936 84.6345 57.5201 84.5824 57.2335 84.5172C56.8687 84.439 56.5037 84.3739 56.1259 84.3088C55.9695 84.2827 55.8132 84.2566 55.6438 84.2306C55.4223 84.2045 55.201 84.1654 54.9665 84.1524C54.758 84.1264 54.5494 84.1003 54.3279 84.0742C54.1064 84.0482 53.872 84.0351 53.6505 84.0221C53.3378 83.9961 53.025 83.983 52.6993 83.97C52.1651 83.9439 51.605 83.944 51.0447 83.957C50.1457 83.983 49.2336 84.0482 48.3477 84.1654C48.1653 84.1915 47.9958 84.2045 47.8134 84.2436C47.5659 84.2827 47.3054 84.3218 47.0578 84.3739C47.0318 84.3739 47.0058 84.3869 46.9797 84.3869C46.7452 84.426 46.5237 84.4651 46.3022 84.5172C46.0025 84.5824 45.7028 84.6475 45.4031 84.7257C45.2859 84.7517 45.1686 84.7908 45.0513 84.8169C44.6214 84.9341 44.2045 85.0644 43.7745 85.1947C39.019 86.7452 34.8367 89.6767 31.5925 93.4941C31.1104 94.0414 30.6544 94.6146 30.2244 95.2009L2.52507 132.959C0.896459 134.6 0.1276 137.024 0.739959 139.525C1.06568 140.841 1.82145 142.001 2.78559 142.952C3.71064 143.877 4.64876 144.802 5.58684 145.714C5.61289 145.74 5.63887 145.766 5.66493 145.792C9.01336 148.984 13.5084 150.73 18.1337 150.626C22.4072 150.457 26.4592 148.711 29.547 145.753C29.547 145.753 29.547 145.753 29.5601 145.74C32.1268 143.121 49.2728 115.07 51.8525 112.464C51.8916 112.412 51.9307 112.373 51.9828 112.321C56.4517 107.709 62.3668 104.777 68.738 103.969C77.2589 103.044 80.0341 106.718 83.9167 109.389Z" fill="#F1A940"/>
<path d="M107.629 62.4983C116.345 61.3648 119.185 57.417 122.859 54.3552L136.084 36.5447C138.807 33.8477 138.82 29.47 136.136 26.747C135.146 25.7437 134.129 24.7275 133.126 23.6982C133.1 23.6852 133.1 23.6721 133.087 23.6721C129.778 20.441 125.309 18.656 120.67 18.6951C116.397 18.8254 112.319 20.5191 109.192 23.4507L109.023 23.62C106.86 25.7828 94.1697 46.2122 88.7627 54.0165C88.7627 54.0295 88.7627 54.0295 88.7627 54.0295C92.515 59.9316 101.283 63.3191 107.629 62.4983Z" fill="#F1A940"/>
<path d="M65.0242 74.1201C65.4542 74.7065 65.9101 75.2797 66.3922 75.8269C69.6364 79.6444 73.8188 82.5629 78.5743 84.1263C78.9913 84.2566 79.4212 84.3869 79.8511 84.5042C79.9684 84.5303 80.0857 84.5693 80.2029 84.5954C80.5026 84.6736 80.8022 84.7387 81.1019 84.8039C81.3234 84.856 81.5449 84.8951 81.7794 84.9342C81.8055 84.9342 81.8314 84.9472 81.8575 84.9472C82.105 84.9993 82.3657 85.0384 82.6133 85.0775C82.7957 85.1035 82.9649 85.1296 83.1473 85.1556C84.0463 85.2729 84.9454 85.3511 85.8444 85.3641C86.4047 85.3902 86.9649 85.3771 87.4991 85.3511C87.8248 85.338 88.1375 85.325 88.4502 85.299C88.6847 85.2859 88.9193 85.2729 89.1277 85.2468C89.3492 85.2208 89.5577 85.2077 89.7661 85.1687C90.0006 85.1426 90.2222 85.1166 90.4437 85.0905C90.613 85.0644 90.7694 85.0384 90.9257 85.0123C91.2905 84.9472 91.6553 84.882 92.0331 84.8039C92.3198 84.7387 92.5934 84.6736 92.8801 84.6084C93.1537 84.5433 93.4273 84.4781 93.6878 84.4C94.0396 84.2957 94.4044 84.1915 94.7561 84.0742C100.02 82.3153 104.645 78.8627 108.02 74.3677C108.046 74.3416 108.046 74.3286 108.072 74.3026C108.958 73.1169 109.961 71.7619 110.99 70.3678C111.564 69.5861 112.163 68.8174 112.71 68.0487C115.159 64.7524 117.27 61.9251 117.27 61.9251L118.716 59.9317C114.834 62.6156 112.059 66.2767 103.538 65.3126C97.1665 64.5178 91.2514 61.5733 86.7825 56.9611C86.7434 56.909 86.7043 56.8699 86.6522 56.8178C84.0725 54.212 66.9264 26.1607 64.3597 23.5419C64.3467 23.5289 64.3467 23.5289 64.3467 23.5289C61.2719 20.5583 57.2068 18.8124 52.9334 18.6561C48.3081 18.5648 43.8132 20.3107 40.4648 23.4898C40.4387 23.5158 40.4126 23.5419 40.3865 23.568C39.4484 24.48 38.5103 25.405 37.5853 26.3301C36.6341 27.2812 35.8655 28.4408 35.5398 29.7567C34.9274 32.2582 35.6961 34.6947 37.3247 36.3233L65.0242 74.1201Z" fill="#F1A940"/>
<path d="M196.16 45.7666C196.16 55.6168 203.548 63.0044 213.75 63.0044C223.952 63.0044 231.339 55.6168 231.339 45.7666V18.3269H222.896V45.7666C222.896 51.3953 219.378 54.9132 213.75 54.9132C208.121 54.9132 204.603 51.3953 204.603 45.7666V18.3269H196.16V45.7666ZM239.439 62.6526H247.53V44.7113C247.53 40.4898 250.274 37.6754 254.214 37.6754C258.154 37.6754 260.898 40.4898 260.898 44.7113V62.6526H268.989V43.6559C268.989 35.2129 263.642 29.936 255.973 29.936C253.229 29.936 251.048 30.8507 249.43 31.695C248.515 32.1875 247.6 32.8207 246.826 33.4539L245.419 30.2878H239.439V62.6526ZM276.404 62.6526H284.496V30.2878H276.404V62.6526ZM280.626 26.4181C283.088 26.4181 285.199 24.3073 285.199 21.8448C285.199 19.3822 283.088 17.2715 280.626 17.2715C278.163 17.2715 276.052 19.3822 276.052 21.8448C276.052 24.3073 278.163 26.4181 280.626 26.4181ZM294.67 51.3953C294.67 58.4311 299.173 63.0044 305.576 63.0044C306.631 63.0044 307.546 62.8637 308.32 62.6526C308.742 62.5823 309.093 62.4416 309.445 62.3009V55.265L308.882 55.4761C308.531 55.5465 308.108 55.6168 307.334 55.6168C304.52 55.6168 302.761 53.8578 302.761 51.0435V37.6754H309.797V30.2878H302.761V22.5484H295.725V27.1217C295.725 29.7249 294.459 30.9914 291.856 30.9914H289.745V37.6754H294.67V51.3953ZM318.221 73.91L319.065 74.1211C319.558 74.1914 320.261 74.2618 321.035 74.2618C326.312 74.2618 329.126 71.3771 332.292 63.708C332.715 62.9341 335.881 54.4911 339.047 46.3295L345.309 30.2878H336.866L329.478 51.3953L321.387 30.2878H312.944L325.257 61.2455L324.553 63.0044C323.498 65.467 321.809 67.2259 318.221 67.2259V73.91ZM196.512 146.653H204.955V122.027L216.212 146.653H221.841L233.098 122.027V146.653H241.541V102.327H234.154L219.026 135.044L203.899 102.327H196.512V146.653ZM270.003 146.653H275.984V126.601C275.984 119.283 270.637 113.936 263.319 113.936C255.228 113.936 250.373 118.931 249.599 124.842H257.691C257.831 124.208 258.113 123.575 258.535 123.083C259.309 122.238 260.435 121.324 262.616 121.324C265.782 121.324 267.893 123.364 267.893 126.952C253.117 126.952 248.544 131.455 248.544 137.858C248.544 143.205 252.414 147.004 259.45 147.004C262.264 147.004 264.515 146.16 266.134 145.245C267.048 144.753 267.822 144.12 268.596 143.487L270.003 146.653ZM267.893 133.988C267.893 137.928 265.078 140.672 260.857 140.672C258.394 140.672 256.635 138.913 256.635 137.154C256.635 134.34 258.394 132.581 267.893 132.581V133.988ZM283.344 146.653H291.435V129.415C291.435 125.193 294.179 122.379 298.119 122.379C298.963 122.379 299.667 122.52 300.16 122.59L300.934 122.731V114.288L300.23 114.147C299.737 114.077 299.245 113.936 298.471 113.936C296.008 113.936 294.109 114.851 292.772 115.906C291.998 116.469 291.294 117.102 290.732 117.806L289.324 114.288H283.344V146.653ZM306.224 146.653H314.315V131.877L325.573 146.653H334.719L321.703 129.767L333.312 114.288H324.166L314.315 127.656V102.327H306.224V146.653ZM357.616 136.802C357.264 137.295 356.772 137.717 356.209 138.069C355.153 138.702 353.817 139.265 351.636 139.265C347.414 139.265 345.022 136.802 344.248 133.636H366.763L366.903 132.581C366.974 131.948 367.114 131.244 367.114 130.47C367.114 120.62 360.079 113.936 351.636 113.936C342.911 113.936 335.453 121.324 335.453 130.47C335.453 139.617 342.911 147.004 351.636 147.004C358.953 147.004 364.37 141.657 366.059 136.802H357.616ZM343.896 128.008C344.67 124.419 347.414 121.675 351.636 121.675C355.857 121.675 358.601 124.419 359.375 128.008H343.896ZM375.541 135.395C375.541 142.431 380.044 147.004 386.446 147.004C387.502 147.004 388.417 146.864 389.19 146.653C389.613 146.582 389.964 146.442 390.316 146.301V139.265L389.753 139.476C389.402 139.546 388.979 139.617 388.205 139.617C385.391 139.617 383.632 137.858 383.632 135.044V121.675H390.668V114.288H383.632V106.548H376.596V111.122C376.596 113.725 375.33 114.991 372.727 114.991H370.616V121.675H375.541V135.395Z" fill="#1C2B4B"/>
</svg>
